<svg width="40" height="40" viewBox="0 0 40 40" fill="none" xmlns="http://www.w3.org/2000/svg">
<path d="M32.9055 13.7553C32.7174 13.2415 32.3763 12.7978 31.9282 12.484C31.4801 12.1701 30.9465 12.0012 30.3994 12H27.1295L25.7962 4H17.0927L18.426 12H15.1295L13.7962 4H5.09267L6.426 12H2.66667V19.3333H0V36H35.6439L40 22.2055V19.3333H34.9339L32.9055 13.7553ZM23.5372 6.66667L24.4261 12H21.1295L20.2407 6.66667H23.5372ZM11.5372 6.66667L12.4261 12H9.1295L8.24067 6.66667H11.5372ZM5.33333 14.6667H30.3994L32.0963 19.3333H5.33333V14.6667ZM37.2685 22L33.6894 33.3333H2.66667V22H37.2685Z" fill="#FEFEFE"/>
<path d="M4 26.4H7.2V29.6H4V26.4Z" fill="#FEFEFE"/>
<path d="M10.4 26.4H13.6V29.6H10.4V26.4Z" fill="#FEFEFE"/>
<path d="M16.8 26.4H20V29.6H16.8V26.4Z" fill="#FEFEFE"/>
<path d="M23.2 26.4H26.4V29.6H23.2V26.4Z" fill="#FEFEFE"/>
<path d="M29.6 26.4H32.8V29.6H29.6V26.4Z" fill="#FEFEFE"/>
</svg>
