<svg width="50" height="50" viewBox="0 0 50 50" fill="none" xmlns="http://www.w3.org/2000/svg">
<path d="M45.6666 13.7917C45.4552 13.2826 45.0507 12.8781 44.5416 12.6667C44.2912 12.5599 44.0222 12.5033 43.75 12.5H33.3333C32.7808 12.5 32.2509 12.7195 31.8602 13.1102C31.4694 13.5009 31.25 14.0308 31.25 14.5833C31.25 15.1359 31.4694 15.6658 31.8602 16.0565C32.2509 16.4472 32.7808 16.6667 33.3333 16.6667H38.7291L27.0833 28.3125L20.2291 21.4375C20.0354 21.2422 19.805 21.0872 19.5512 20.9815C19.2973 20.8757 19.025 20.8213 18.75 20.8213C18.4749 20.8213 18.2026 20.8757 17.9488 20.9815C17.6949 21.0872 17.4645 21.2422 17.2708 21.4375L4.77079 33.9375C4.57552 34.1312 4.42053 34.3616 4.31476 34.6155C4.209 34.8693 4.15454 35.1416 4.15454 35.4167C4.15454 35.6917 4.209 35.964 4.31476 36.2179C4.42053 36.4717 4.57552 36.7022 4.77079 36.8958C4.96446 37.0911 5.19488 37.2461 5.44875 37.3519C5.70263 37.4576 5.97493 37.5121 6.24995 37.5121C6.52498 37.5121 6.79728 37.4576 7.05116 37.3519C7.30503 37.2461 7.53545 37.0911 7.72912 36.8958L18.75 25.8542L25.6041 32.7292C25.7978 32.9244 26.0282 33.0794 26.2821 33.1852C26.536 33.291 26.8083 33.3454 27.0833 33.3454C27.3583 33.3454 27.6306 33.291 27.8845 33.1852C28.1384 33.0794 28.3688 32.9244 28.5625 32.7292L41.6666 19.6042V25C41.6666 25.5525 41.8861 26.0824 42.2768 26.4731C42.6675 26.8638 43.1974 27.0833 43.75 27.0833C44.3025 27.0833 44.8324 26.8638 45.2231 26.4731C45.6138 26.0824 45.8333 25.5525 45.8333 25V14.5833C45.83 14.3111 45.7734 14.0421 45.6666 13.7917Z" fill="#DA653E"/>
</svg>
