<svg width="40" height="40" viewBox="0 0 40 40" fill="none" xmlns="http://www.w3.org/2000/svg">
<path d="M33.3334 13.3333H28.3334V6.66663H5.00002C3.16669 6.66663 1.66669 8.16663 1.66669 9.99996V28.3333H5.00002C5.00002 31.1 7.23335 33.3333 10 33.3333C12.7667 33.3333 15 31.1 15 28.3333H25C25 31.1 27.2334 33.3333 30 33.3333C32.7667 33.3333 35 31.1 35 28.3333H38.3334V20L33.3334 13.3333ZM32.5 15.8333L35.7667 20H28.3334V15.8333H32.5ZM10 30C9.08335 30 8.33335 29.25 8.33335 28.3333C8.33335 27.4166 9.08335 26.6666 10 26.6666C10.9167 26.6666 11.6667 27.4166 11.6667 28.3333C11.6667 29.25 10.9167 30 10 30ZM13.7 25C12.7834 23.9833 11.4834 23.3333 10 23.3333C8.51669 23.3333 7.21669 23.9833 6.30002 25H5.00002V9.99996H25V25H13.7ZM30 30C29.0834 30 28.3334 29.25 28.3334 28.3333C28.3334 27.4166 29.0834 26.6666 30 26.6666C30.9167 26.6666 31.6667 27.4166 31.6667 28.3333C31.6667 29.25 30.9167 30 30 30Z" fill="white"/>
</svg>
