<svg width="107" height="39" viewBox="0 0 107 39" fill="none" xmlns="http://www.w3.org/2000/svg">
<path d="M107 24.8428V14.1572C107.001 12.9072 106.56 11.6964 105.754 10.7355C104.947 9.77463 103.826 9.12452 102.587 8.89833L54.4802 0.0877786C53.8321 -0.0292595 53.1679 -0.0292595 52.5198 0.0877786L4.41343 8.89579C3.1731 9.12206 2.0521 9.77253 1.24566 10.7339C0.439207 11.6953 -0.00159719 12.9067 4.34869e-06 14.1572V24.8428C-0.000996401 26.0928 0.440081 27.3036 1.24648 28.2645C2.05287 29.2254 3.17353 29.8755 4.41343 30.1017L52.5198 38.9122C53.1679 39.0293 53.8321 39.0293 54.4802 38.9122L102.587 30.1042C103.827 29.8779 104.948 29.2275 105.754 28.2661C106.561 27.3047 107.002 26.0933 107 24.8428Z" fill="#DA653E"/>
<path d="M21.7361 27.747H19.36C19.2827 27.3489 19.2338 26.946 19.2138 26.5411C18.7006 27.6859 17.6357 27.9912 16.6222 27.9912C14.0562 27.9912 13.3429 26.1034 13.3429 23.4422V15.774C13.3429 13.2756 14.3872 11.1945 17.5228 11.1945C21.3076 11.1945 21.6899 13.9244 21.6899 15.5679V16.3007H18.5056V15.4026C18.5056 14.6139 18.4081 13.876 17.5305 13.876C16.8069 13.876 16.5401 14.4001 16.5401 15.4636V23.8162C16.5401 24.928 16.9019 25.3427 17.5305 25.3427C18.3003 25.3427 18.5569 24.7499 18.5569 23.4091V21.0736H17.4689V18.4276H21.731L21.7361 27.747Z" fill="black"/>
<path d="M28.015 20.664V27.747H24.8589V11.4514H28.9644C31.7177 11.4514 33.0699 12.6497 33.0699 15.4992V16.0869C33.0699 18.4098 32.1333 19.0993 31.4277 19.43C32.4541 19.9185 32.9314 20.664 32.9314 22.9385C32.9314 24.5108 32.9057 26.8896 33.0443 27.747H29.9933C29.7906 27.0117 29.8035 24.8899 29.8035 22.8087C29.8035 20.9743 29.5931 20.664 28.3896 20.664H28.015ZM28.015 18.1935H28.405C29.4622 18.1935 29.8933 17.8628 29.8933 16.3464V15.5577C29.8933 14.4637 29.67 13.9193 28.5077 13.9193H28.015V18.1935Z" fill="black"/>
<path d="M39.182 11.4514V27.747H36.0259V11.4514H39.182Z" fill="black"/>
<path d="M44.0188 27.747L41.5658 11.4514H44.9272L45.5148 17.4863C45.7149 19.5827 45.9741 21.9437 46.0896 24.0197H46.2153C46.3205 21.9462 46.5874 19.715 46.7644 17.5091L47.2776 11.4514H50.58L48.1526 27.747H44.0188Z" fill="black"/>
<path d="M55.5065 22.7298V23.8569C55.5065 24.9306 55.7631 25.4267 56.4944 25.4267C57.2257 25.4267 57.3951 24.6889 57.3951 23.9205C57.3951 22.394 57.1025 21.9361 55.4244 20.5444C53.5718 18.9899 52.6198 18.0689 52.6198 15.6697C52.6198 13.3418 53.3896 11.1945 56.5124 11.1945C59.8173 11.1945 60.3048 13.4308 60.3048 15.2957V16.2345H57.3206V15.2575C57.3206 14.2704 57.1564 13.7794 56.5329 13.7794C55.9479 13.7794 55.7631 14.2882 55.7631 15.2016C55.7631 16.1811 55.9427 16.667 57.3027 17.7178C59.7198 19.6005 60.5871 20.6589 60.5871 23.343C60.5871 25.8872 59.707 27.9963 56.4431 27.9963C53.3075 27.9963 52.412 26.1213 52.412 23.7068V22.7298H55.5065Z" fill="black"/>
<path d="M67.6716 11.4514H70.8354V25.0043H74.8101L74.5278 27.747H67.6716V11.4514Z" fill="black"/>
<path d="M77.2683 14.222H74.8743V11.4514H82.8287V14.222H80.4193V27.747H77.2632L77.2683 14.222Z" fill="black"/>
<path d="M85.1869 11.4514H89.0743C92.4613 11.4514 93.6289 12.9779 93.6289 16.3541V22.4754C93.6289 25.274 93.0284 27.7419 89.2898 27.7419H85.1869V11.4514ZM88.3533 25.2206H88.9691C90.2084 25.2206 90.4137 24.4192 90.4137 23.1496V15.8605C90.4137 14.6571 90.1417 14.0032 88.946 14.0032H88.3533V25.2206Z" fill="black"/>
</svg>
