<svg width="22" height="28" viewBox="0 0 22 28" fill="none" xmlns="http://www.w3.org/2000/svg">
<path d="M11 27.5001C9.10541 25.8841 7.34929 24.1124 5.75 22.2036C3.35 19.3371 0.500001 15.0681 0.500001 11.0001C0.49896 8.92258 1.11426 6.89141 2.26804 5.16368C3.42182 3.43595 5.06221 2.08933 6.9816 1.29423C8.901 0.499143 11.0131 0.291323 13.0507 0.697076C15.0882 1.10283 16.9596 2.10391 18.428 3.57364C19.4056 4.54693 20.1805 5.70444 20.7078 6.9792C21.2351 8.25395 21.5044 9.62063 21.5 11.0001C21.5 15.0681 18.65 19.3371 16.25 22.2036C14.6507 24.1124 12.8946 25.8841 11 27.5001ZM11 6.50014C9.80653 6.50014 8.66193 6.97424 7.81802 7.81816C6.97411 8.66207 6.5 9.80666 6.5 11.0001C6.5 12.1936 6.97411 13.3382 7.81802 14.1821C8.66193 15.026 9.80653 15.5001 11 15.5001C12.1935 15.5001 13.3381 15.026 14.182 14.1821C15.0259 13.3382 15.5 12.1936 15.5 11.0001C15.5 9.80666 15.0259 8.66207 14.182 7.81816C13.3381 6.97424 12.1935 6.50014 11 6.50014Z" fill="#DA653E"/>
</svg>
