<svg width="50" height="50" viewBox="0 0 50 50" fill="none" xmlns="http://www.w3.org/2000/svg">
<path d="M20.3125 46.875C15.7541 46.875 11.3824 45.0642 8.1591 41.8409C4.93582 38.6176 3.125 34.2459 3.125 29.6875C3.125 25.1291 4.93582 20.7574 8.1591 17.5341C11.3824 14.3108 15.7541 12.5 20.3125 12.5C20.7269 12.5 21.1243 12.6646 21.4174 12.9576C21.7104 13.2507 21.875 13.6481 21.875 14.0625V28.125H35.9375C36.3519 28.125 36.7493 28.2896 37.0424 28.5826C37.3354 28.8757 37.5 29.2731 37.5 29.6875C37.5 34.2459 35.6892 38.6176 32.4659 41.8409C29.2426 45.0642 24.8709 46.875 20.3125 46.875ZM18.75 15.7188C16.1175 16.0116 13.6213 17.042 11.5487 18.6913C9.47609 20.3406 7.91144 22.5417 7.03487 25.0412C6.15831 27.5407 6.00548 30.2369 6.59397 32.8194C7.18247 35.402 8.48836 37.7658 10.3613 39.6387C12.2342 41.5116 14.598 42.8175 17.1806 43.406C19.7631 43.9945 22.4593 43.8417 24.9588 42.9651C27.4583 42.0886 29.6594 40.5239 31.3087 38.4513C32.958 36.3787 33.9884 33.8825 34.2812 31.25H21.875C21.0462 31.25 20.2513 30.9208 19.6653 30.3347C19.0792 29.7487 18.75 28.9538 18.75 28.125V15.7188Z" fill="#DA653E"/>
<path d="M42.1875 25H28.125C27.2962 25 26.5013 24.6708 25.9153 24.0847C25.3292 23.4987 25 22.7038 25 21.875V7.8125C25 7.3981 25.1646 7.00067 25.4576 6.70765C25.7507 6.41462 26.1481 6.25 26.5625 6.25C31.1209 6.25 35.4926 8.06082 38.7159 11.2841C41.9392 14.5074 43.75 18.8791 43.75 23.4375C43.75 23.8519 43.5854 24.2493 43.2924 24.5424C42.9993 24.8354 42.6019 25 42.1875 25ZM28.125 21.875H40.5313C40.1757 18.7071 38.7543 15.7539 36.5002 13.4998C34.2461 11.2457 31.2929 9.82431 28.125 9.46875V21.875Z" fill="#DA653E"/>
</svg>
