<svg width="50" height="50" viewBox="0 0 50 50" fill="none" xmlns="http://www.w3.org/2000/svg">
<path d="M38.3333 11.6667L36.875 13.125M6.25 25H8.33333H6.25ZM25 6.25V8.33333V6.25ZM41.6667 25H43.75H41.6667ZM11.6667 11.6667L13.125 13.125L11.6667 11.6667Z" stroke="#DA653E" stroke-width="3" stroke-linecap="round" stroke-linejoin="round"/>
<path d="M18.75 33.3333C17.001 32.0216 15.709 30.1927 15.0571 28.1059C14.4053 26.0191 14.4265 23.78 15.1179 21.706C15.8092 19.6319 17.1356 17.8279 18.9092 16.5496C20.6828 15.2712 22.8137 14.5833 25 14.5833C27.1863 14.5833 29.3171 15.2712 31.0907 16.5496C32.8643 17.8279 34.1907 19.6319 34.8821 21.706C35.5735 23.78 35.5947 26.0191 34.9428 28.1059C34.291 30.1927 32.999 32.0216 31.25 33.3333C30.4366 34.1385 29.8241 35.1238 29.4622 36.2096C29.1003 37.2954 28.999 38.4512 29.1666 39.5833C29.1666 40.6884 28.7277 41.7482 27.9463 42.5296C27.1649 43.311 26.105 43.75 25 43.75C23.8949 43.75 22.8351 43.311 22.0537 42.5296C21.2723 41.7482 20.8333 40.6884 20.8333 39.5833C21.0009 38.4512 20.8997 37.2954 20.5377 36.2096C20.1758 35.1238 19.5634 34.1385 18.75 33.3333" stroke="#DA653E" stroke-width="3" stroke-linecap="round" stroke-linejoin="round"/>
<path d="M20.2084 35.4167H29.7917" stroke="#DA653E" stroke-width="3" stroke-linecap="round" stroke-linejoin="round"/>
</svg>
